<svg width="8" height="8" viewBox="0 0 8 8" fill="none" xmlns="http://www.w3.org/2000/svg">
<path fill-rule="evenodd" clip-rule="evenodd" d="M7.12912 0.871282C7.40184 1.14399 7.40184 1.58615 7.12912 1.85886L1.85911 7.12888C1.58639 7.40159 1.14424 7.40159 0.871527 7.12888C0.598814 6.85617 0.598814 6.41401 0.871527 6.1413L6.14155 0.871282C6.41426 0.59857 6.85641 0.59857 7.12912 0.871282Z" fill="#A0AEC0"/>
<path fill-rule="evenodd" clip-rule="evenodd" d="M0.871527 0.871282C1.14424 0.59857 1.58639 0.59857 1.85911 0.871282L7.12912 6.1413C7.40184 6.41401 7.40184 6.85617 7.12912 7.12888C6.85641 7.40159 6.41426 7.40159 6.14155 7.12888L0.871527 1.85886C0.598814 1.58615 0.598814 1.14399 0.871527 0.871282Z" fill="#A0AEC0"/>
</svg>
