<svg width="24" height="24" viewBox="0 0 24 24" fill="none" xmlns="http://www.w3.org/2000/svg">
<path fill-rule="evenodd" clip-rule="evenodd" d="M9.2093 10.372C9.59461 10.372 9.90697 10.6844 9.90697 11.0697V14.9668L10.5764 14.2974C10.8489 14.0249 11.2906 14.0249 11.5631 14.2974C11.8355 14.5698 11.8355 15.0116 11.5631 15.284L9.70263 17.1445C9.50309 17.344 9.20301 17.4037 8.94231 17.2957C8.6816 17.1877 8.51162 16.9334 8.51162 16.6512V11.0697C8.51162 10.6844 8.82398 10.372 9.2093 10.372Z" fill="#3182CE"/>
<path fill-rule="evenodd" clip-rule="evenodd" d="M6.8555 14.2974C7.12796 14.0249 7.5697 14.0249 7.84216 14.2974L9.70263 16.1578C9.97508 16.4303 9.97508 16.872 9.70263 17.1445C9.43017 17.417 8.98842 17.417 8.71597 17.1445L6.8555 15.284C6.58304 15.0116 6.58304 14.5698 6.8555 14.2974Z" fill="#3182CE"/>
<path fill-rule="evenodd" clip-rule="evenodd" d="M4.70263 4.70265C3.85097 5.55431 3.39535 6.95255 3.39535 9.20932C3.39535 9.59463 3.08299 9.90699 2.69767 9.90699C2.31236 9.90699 2 9.59463 2 9.20932C2 6.81492 2.47461 4.95736 3.71597 3.71599C4.95734 2.47463 6.81491 2.00002 9.2093 2.00002H13.8605C14.2458 2.00002 14.5581 2.31238 14.5581 2.69769C14.5581 3.08301 14.2458 3.39537 13.8605 3.39537H9.2093C6.95253 3.39537 5.55429 3.85099 4.70263 4.70265Z" fill="#3182CE"/>
<path fill-rule="evenodd" clip-rule="evenodd" d="M21.3023 9.44187C21.6876 9.44187 22 9.75423 22 10.1395V14.7907C22 17.1851 21.5254 19.0427 20.284 20.284C19.0426 21.5254 17.1851 22 14.7907 22H9.2093C6.81491 22 4.95734 21.5254 3.71597 20.284C2.47461 19.0427 2 17.1851 2 14.7907V12.9116C2 12.5263 2.31236 12.214 2.69767 12.214C3.08299 12.214 3.39535 12.5263 3.39535 12.9116V14.7907C3.39535 17.0475 3.85097 18.4457 4.70263 19.2974C5.55429 20.149 6.95253 20.6047 9.2093 20.6047H14.7907C17.0475 20.6047 18.4457 20.149 19.2974 19.2974C20.149 18.4457 20.6046 17.0475 20.6046 14.7907V10.1395C20.6046 9.75423 20.917 9.44187 21.3023 9.44187Z" fill="#3182CE"/>
<path fill-rule="evenodd" clip-rule="evenodd" d="M13.5935 2.05313C13.8542 1.94514 14.1543 2.00483 14.3538 2.20436L21.7956 9.64622C21.9693 9.81986 22.0388 10.072 21.9788 10.3101C21.9188 10.5482 21.738 10.7372 21.5028 10.8078C19.0453 11.545 17.0815 11.3317 15.6444 10.4421C14.214 9.55659 13.4296 8.07742 13.1723 6.53332C13.166 6.49541 13.1628 6.45705 13.1628 6.41862V2.69769C13.1628 2.41551 13.3328 2.16111 13.5935 2.05313ZM14.5581 4.38203V6.35918C14.7746 7.58236 15.3823 8.63875 16.3788 9.25564C17.1934 9.75988 18.3496 10.0208 19.927 9.75088L14.5581 4.38203Z" fill="#3182CE"/>
</svg>
