<svg width="24" height="24" viewBox="0 0 24 24" fill="none" xmlns="http://www.w3.org/2000/svg">
<path fill-rule="evenodd" clip-rule="evenodd" d="M11.8905 2.35235C12.3282 1.88255 13.0379 1.88255 13.4756 2.35235L21.6717 11.1493C22.1094 11.6191 22.1094 12.3809 21.6717 12.8507L13.4756 21.6476C13.0379 22.1175 12.3282 22.1175 11.8905 21.6476C11.4527 21.1778 11.4527 20.4161 11.8905 19.9463L19.2941 12L11.8905 4.05366C11.4527 3.58386 11.4527 2.82216 11.8905 2.35235Z" fill="#3182CE"/>
<path fill-rule="evenodd" clip-rule="evenodd" d="M2 12C2 11.3356 2.50182 10.797 3.12084 10.797H19.7408C20.3598 10.797 20.8616 11.3356 20.8616 12C20.8616 12.6644 20.3598 13.203 19.7408 13.203H3.12084C2.50182 13.203 2 12.6644 2 12Z" fill="#3182CE"/>
</svg>
