<svg width="24" height="24" viewBox="0 0 24 24" fill="none" xmlns="http://www.w3.org/2000/svg">
<path d="M12.1548 7.39461C12.1135 7.35222 12.0584 7.32856 12.0012 7.32856C11.944 7.32856 11.889 7.35222 11.8476 7.39461L6.73372 12.6291C6.712 12.6513 6.69473 12.6781 6.68293 12.7077C6.67114 12.7373 6.66508 12.7692 6.66511 12.8014L6.66428 17.7142C6.66428 17.9668 6.75793 18.209 6.92463 18.3876C7.09132 18.5662 7.31742 18.6666 7.55316 18.6666H10.2226C10.3405 18.6666 10.4535 18.6164 10.5369 18.5271C10.6202 18.4378 10.667 18.3167 10.667 18.1904V14.1426C10.667 14.0794 10.6905 14.0188 10.7321 13.9742C10.7738 13.9295 10.8303 13.9044 10.8893 13.9044H13.1115C13.1704 13.9044 13.2269 13.9295 13.2686 13.9742C13.3103 14.0188 13.3337 14.0794 13.3337 14.1426V18.1904C13.3337 18.3167 13.3805 18.4378 13.4639 18.5271C13.5472 18.6164 13.6603 18.6666 13.7781 18.6666H16.4465C16.6822 18.6666 16.9083 18.5662 17.075 18.3876C17.2417 18.209 17.3354 17.9668 17.3354 17.7142V12.8014C17.3354 12.7692 17.3293 12.7373 17.3175 12.7077C17.3057 12.6781 17.2885 12.6513 17.2668 12.6291L12.1548 7.39461Z" fill="currentColor"/>
<path d="M18.5259 11.6475L16.4481 9.51768V6.28568C16.4481 6.15938 16.4013 6.03825 16.318 5.94895C16.2346 5.85964 16.1216 5.80947 16.0037 5.80947H14.6704C14.5525 5.80947 14.4394 5.85964 14.3561 5.94895C14.2727 6.03825 14.2259 6.15938 14.2259 6.28568V7.23811L12.617 5.58981C12.4665 5.42671 12.2426 5.33325 12.0006 5.33325C11.7595 5.33325 11.5362 5.42671 11.3856 5.59011L5.47733 11.647C5.30455 11.8255 5.28288 12.1193 5.44011 12.3128C5.47959 12.3616 5.52793 12.4013 5.58219 12.4295C5.63645 12.4577 5.69549 12.4737 5.75573 12.4767C5.81596 12.4796 5.87613 12.4694 5.93256 12.4467C5.989 12.4239 6.04052 12.3891 6.08399 12.3443L11.8479 6.44283C11.8892 6.40044 11.9442 6.37678 12.0015 6.37678C12.0587 6.37678 12.1137 6.40044 12.1551 6.44283L17.9195 12.3443C18.0044 12.4316 18.1182 12.4792 18.2358 12.4767C18.3534 12.4743 18.4653 12.4219 18.547 12.3312C18.7176 12.1419 18.7034 11.8294 18.5259 11.6475Z" fill="currentColor"/>
</svg>
