<svg width="35" height="38" viewBox="0 0 35 38" fill="none" xmlns="http://www.w3.org/2000/svg">
    <!-- Прямоугольник без обводки -->
    <rect x="0" y="0" width="35" height="38" fill="none" />

    <!-- Левая граница -->
    <line x1="0.5" y1="0" x2="0.5" y2="38" stroke="#BEC7D3" stroke-width="2px"/>

    <!-- Поисковая иконка -->
    <path d="M24.462 24.3282L21.4394 21.3056C22.1671 20.3369 22.5599 19.1577 22.5586 17.9461C22.5586 14.8512 20.0407 12.3333 16.9458 12.3333C13.8509 12.3333 11.333 14.8512 11.333 17.9461C11.333 21.0409 13.8509 23.5589 16.9458 23.5589C18.1574 23.5602 19.3366 23.1673 20.3054 22.4396L23.328 25.4622C23.481 25.599 23.6806 25.672 23.8857 25.6663C24.0908 25.6605 24.286 25.5765 24.4311 25.4314C24.5762 25.2862 24.6603 25.0911 24.666 24.8859C24.6718 24.6808 24.5988 24.4812 24.462 24.3282ZM12.9367 17.9461C12.9367 17.1531 13.1718 16.378 13.6123 15.7187C14.0529 15.0594 14.679 14.5455 15.4116 14.2421C16.1442 13.9386 16.9503 13.8593 17.728 14.0139C18.5057 14.1686 19.22 14.5505 19.7807 15.1112C20.3414 15.6718 20.7232 16.3862 20.8779 17.1639C21.0326 17.9416 20.9532 18.7477 20.6498 19.4803C20.3463 20.2129 19.8325 20.839 19.1732 21.2795C18.5139 21.7201 17.7387 21.9552 16.9458 21.9552C15.8829 21.9539 14.8639 21.5311 14.1123 20.7795C13.3607 20.028 12.9379 19.009 12.9367 17.9461Z" fill="#A0AEC0"/>
</svg>