<svg width="24" height="24" viewBox="0 0 24 24" fill="none" xmlns="http://www.w3.org/2000/svg">
<path d="M21.6935 19.9925L17.1596 15.4586C18.2511 14.0054 18.8404 12.2367 18.8384 10.4192C18.8384 5.77688 15.0615 2 10.4192 2C5.77688 2 2 5.77688 2 10.4192C2 15.0615 5.77688 18.8384 10.4192 18.8384C12.2367 18.8404 14.0054 18.2511 15.4586 17.1596L19.9925 21.6935C20.222 21.8986 20.5213 22.0081 20.829 21.9995C21.1367 21.9909 21.4295 21.8648 21.6472 21.6472C21.8648 21.4295 21.9909 21.1367 21.9995 20.829C22.0081 20.5213 21.8986 20.222 21.6935 19.9925ZM4.40549 10.4192C4.40549 9.2298 4.75818 8.06711 5.41898 7.07816C6.07977 6.08921 7.01899 5.31842 8.11785 4.86325C9.21671 4.40809 10.4259 4.289 11.5924 4.52104C12.759 4.75308 13.8305 5.32583 14.6715 6.16686C15.5126 7.00789 16.0853 8.07944 16.3174 9.24598C16.5494 10.4125 16.4303 11.6217 15.9751 12.7205C15.52 13.8194 14.7492 14.7586 13.7602 15.4194C12.7713 16.0802 11.6086 16.4329 10.4192 16.4329C8.82485 16.431 7.29635 15.7968 6.16897 14.6694C5.0416 13.5421 4.4074 12.0135 4.40549 10.4192Z" fill="#3182CE"/>
</svg>
